<svg id="Layer_1" enable-background="new 0 0 64 64" height="512" viewBox="0 0 64 64" width="512" xmlns="http://www.w3.org/2000/svg"><path d="m51 28h-38c-1.1 0-2 .9-2 2v10h42v-10c0-1.1-.9-2-2-2z" fill="#a0a0a0"/><path d="m11 32h42v-2c0-1.1-.9-2-2-2h-38c-1.1 0-2 .9-2 2z" fill="#d3d1cf"/><path d="m49.7 37.2-17.7-9.2-17.7 9.2c-3.3 1.7-5.3 5.1-5.3 8.8v15h46v-15c0-3.7-2-7.1-5.3-8.8z" fill="#b4b4b5"/><path d="m43.1 43.1-2.1-2.1h-18l-2.1 2.1c-1.9 1.9-2.9 4.4-2.9 7.1v10.8h28v-10.9c0-2.6-1.1-5.2-2.9-7z" fill="#e5e1dc"/><path d="m31 43h2v18h-2z" fill="#d3d1cf"/><path d="m9 51h9v10h-9z" fill="#d3d1cf"/><path d="m21 50h8v2h-8z" fill="#b4b4b5"/><circle cx="39" cy="51" fill="#1b4666" r="3"/><path d="m21 55h8v2h-8z" fill="#b4b4b5"/><path d="m55 46c0-2.2-.7-4.3-2-6l-4 2 2 4z" fill="#686868"/><path d="m9 46c0-2.2.7-4.3 2-6l4 2-2 4z" fill="#686868"/><g fill="#d3d1cf"><path d="m46 51h9v10h-9z"/><path d="m46.1 38.9 2.9-1.9v-.2l-9.3-4.8h-15.4l-9.3 4.8v.2l2.9 1.9c8.6 5.5 19.6 5.5 28.2 0z"/><path d="m49 15h-4v8h4c1.1 0 2-.9 2-2v-4c0-1.1-.9-2-2-2z"/><path d="m15 15c-1.1 0-2 .9-2 2v4c0 1.1.9 2 2 2h4v-8z"/></g><path d="m43.7 10.2c-.4-4.1-3.9-7.2-8-7.2h-7.5c-4.1 0-7.6 3.1-8 7.2l-.2 2.8h24z" fill="#b4b4b5"/><circle cx="32" cy="22" fill="#e5e1dc" r="15"/><path d="m23.8 29.3c-4-4.5-3.6-11.5.9-15.5s11.5-3.6 15.5.9c3.7 4.2 3.7 10.5 0 14.6-.4.4-.9.7-1.5.7h-13.4c-.6 0-1.1-.3-1.5-.7z" fill="#2b2b2b"/><path d="m40 23h-2c0-3.9-3.1-7-7-7v-2c5 0 9 4 9 9z" fill="#3f3f3f"/><path d="m47 2h2v13h-2z" fill="#b4b4b5"/><path d="m25.3 31h13.4c.9 0 1.7-.4 2.3-1 4.4-4.9 4-12.5-1-16.9s-12.5-4-16.9 1c-4 4.5-4.1 11.4 0 16 .5.5 1.3.9 2.2.9zm-3.2-10.6c.7-4.4 4.3-7.8 8.7-8.3.4 0 .8-.1 1.2-.1 2.5 0 4.8.9 6.7 2.5 4.1 3.7 4.5 10 .8 14.1-.2.3-.5.4-.8.4h-13.4c-.3 0-.6-.1-.8-.4-2-2.2-2.8-5.2-2.4-8.2z"/><path d="m54 39.7v-9.7c0-1.7-1.3-3-3-3h-3.8c.3-1 .5-2 .7-3h1.1c1.7 0 3-1.3 3-3v-4c0-1.7-1.3-3-3-3v-12h-2v12h-1.2c-.3-.5-.6-.9-.9-1.3l-.3-2.6c-.4-4.6-4.3-8.1-9-8.1h-7.5c-4.6 0-8.5 3.5-9 8.1l-.1 2.6c-.3.4-.6.9-.9 1.3h-3.1c-1.7 0-3 1.3-3 3v4c0 1.7 1.3 3 3 3h1.1c.1 1 .4 2 .7 3h-3.8c-1.7 0-3 1.3-3 3v9.7c-1.3 1.8-2 4-2 6.3v16h48v-16c0-2.3-.7-4.5-2-6.3zm-7 10.3c0-2.9-1.2-5.6-3.2-7.6l-.7-.7c1.2-.6 2.5-1.2 3.6-2l2.6-1.7c.8.4 1.5 1 2.1 1.6l-3.8 1.9 2.7 5.4h3.7v3h-7zm-35.7-8.7 2.3 1.2-1.2 2.5h-2.3c.1-1.3.5-2.6 1.2-3.7zm2.3 5.7 2.7-5.4-3.8-1.9c.6-.6 1.4-1.2 2.1-1.6l2.6 1.7c1.1.7 2.4 1.4 3.6 2l-.7.7c-2 2-3.2 4.8-3.2 7.6h-7v-3h3.7zm18.4-39c7.7 0 14 6.3 14 14s-6.3 14-14 14-14-6.3-14-14 6.3-14 14-14zm-10.3 26.3c5.9 5 14.6 5 20.5 0l5 2.7-1.6 1c-8.3 5.3-18.9 5.3-27.2 0l-1.6-1zm-2.7 15.8c0-2.4.9-4.7 2.6-6.4l1.3-1.3c2.6.9 5.3 1.4 8 1.5v16h-11.9zm14-6.1c2.7-.1 5.5-.6 8-1.5l1.3 1.3c1.7 1.7 2.6 4 2.6 6.4v9.8h-11.9zm18.6 1-1.3-2.6 2.3-1.2c.7 1.1 1.1 2.4 1.3 3.7h-2.3zm-.6-16c.6 0 1 .4 1 1v1h-4v2h4v4.5c-.6-.5-1.2-.9-1.8-1.2l-6.5-3.5c1-1.1 1.9-2.4 2.6-3.8zm-2-13c.6 0 1 .4 1 1v4c0 .6-.4 1-1 1h-1c0-2.1-.4-4.1-1.2-6zm-20.8-12h7.5c3.5 0 6.5 2.6 6.9 6.1-6.1-5.5-15.3-5.5-21.4 0 .5-3.5 3.5-6.1 7-6.1zm-13.2 18c-.6 0-1-.4-1-1v-4c0-.6.4-1 1-1h2.2c-.8 1.9-1.2 3.9-1.2 6zm-2 7h4.6c.7 1.4 1.6 2.7 2.6 3.8l-6.5 3.5c-.6.4-1.2.8-1.8 1.2v-4.5h4v-2h-4v-1c.1-.6.5-1 1.1-1zm-3 23h7v8h-7zm37 8v-8h7v8z"/><path d="m38 23h2c0-5-4-9-9-9v2c3.9 0 7 3.1 7 7z"/><path d="m21 50h8v2h-8z"/><path d="m39 47c-2.2 0-4 1.8-4 4s1.8 4 4 4 4-1.8 4-4-1.8-4-4-4zm0 6c-1.1 0-2-.9-2-2s.9-2 2-2 2 .9 2 2-.9 2-2 2z"/><path d="m21 55h8v2h-8z"/></svg>